<svg width="24" height="24" viewBox="0 0 24 24" fill="none" xmlns="http://www.w3.org/2000/svg">
<path d="M13.0281 2.00123C13.7578 1.99843 14.4876 2.00576 15.2171 2.02323L15.4111 2.03023C15.6351 2.03823 15.8561 2.04823 16.1231 2.06023C17.1871 2.11023 17.9131 2.27823 18.5501 2.52523C19.2101 2.77923 19.7661 3.12323 20.3221 3.67923C20.8305 4.17884 21.2239 4.78318 21.4751 5.45023C21.7221 6.08723 21.8901 6.81423 21.9401 7.87823C21.9521 8.14423 21.9621 8.36623 21.9701 8.59023L21.9761 8.78423C21.9939 9.51342 22.0015 10.2428 21.9991 10.9722L22.0001 11.7182V13.0282C22.0026 13.758 21.9949 14.4877 21.9771 15.2172L21.9711 15.4112C21.9631 15.6352 21.9531 15.8562 21.9411 16.1232C21.8911 17.1872 21.7211 17.9132 21.4751 18.5502C21.2247 19.218 20.8312 19.8228 20.3221 20.3222C19.8221 20.8306 19.2174 21.224 18.5501 21.4752C17.9131 21.7222 17.1871 21.8902 16.1231 21.9402C15.8561 21.9522 15.6351 21.9622 15.4111 21.9702L15.2171 21.9762C14.4876 21.994 13.7578 22.0017 13.0281 21.9992L12.2821 22.0002H10.9731C10.2434 22.0027 9.51361 21.995 8.78409 21.9772L8.59009 21.9712C8.3527 21.9626 8.11536 21.9526 7.87809 21.9412C6.81409 21.8912 6.08809 21.7212 5.45009 21.4752C4.78277 21.2246 4.17833 20.8311 3.67909 20.3222C3.17013 19.8225 2.77631 19.2178 2.52509 18.5502C2.27809 17.9132 2.11009 17.1872 2.06009 16.1232C2.04895 15.8859 2.03895 15.6486 2.03009 15.4112L2.02509 15.2172C2.00665 14.4877 1.99832 13.758 2.00009 13.0282V10.9722C1.9973 10.2428 2.00463 9.51343 2.02209 8.78423L2.02909 8.59023C2.03709 8.36623 2.04709 8.14423 2.05909 7.87823C2.10909 6.81323 2.27709 6.08823 2.52409 5.45023C2.77546 4.78285 3.17005 4.17868 3.68009 3.68023C4.17898 3.17098 4.78305 2.7768 5.45009 2.52523C6.08809 2.27823 6.81309 2.11023 7.87809 2.06023L8.59009 2.03023L8.78409 2.02523C9.51327 2.0068 10.2427 1.99847 10.9721 2.00023L13.0281 2.00123ZM12.0001 7.00123C11.3376 6.99186 10.6798 7.11425 10.0651 7.3613C9.45029 7.60834 8.89074 7.97511 8.41893 8.44029C7.94713 8.90546 7.57249 9.45977 7.31678 10.071C7.06106 10.6822 6.92938 11.3382 6.92938 12.0007C6.92938 12.6633 7.06106 13.3192 7.31678 13.9305C7.57249 14.5417 7.94713 15.096 8.41893 15.5612C8.89074 16.0264 9.45029 16.3931 10.0651 16.6402C10.6798 16.8872 11.3376 17.0096 12.0001 17.0002C13.3262 17.0002 14.5979 16.4734 15.5356 15.5358C16.4733 14.5981 17.0001 13.3263 17.0001 12.0002C17.0001 10.6741 16.4733 9.40238 15.5356 8.4647C14.5979 7.52701 13.3262 7.00123 12.0001 7.00123ZM12.0001 9.00123C12.3986 8.99389 12.7946 9.06603 13.1649 9.21344C13.5352 9.36085 13.8724 9.58057 14.1569 9.85978C14.4413 10.139 14.6673 10.4721 14.8215 10.8396C14.9758 11.2071 15.0553 11.6016 15.0554 12.0002C15.0554 12.3988 14.9761 12.7934 14.8219 13.1609C14.6678 13.5285 14.4419 13.8617 14.1576 14.141C13.8732 14.4203 13.5361 14.6401 13.1658 14.7876C12.7955 14.9352 12.3996 15.0074 12.0011 15.0002C11.2054 15.0002 10.4424 14.6842 9.87977 14.1216C9.31716 13.5589 9.00109 12.7959 9.00109 12.0002C9.00109 11.2046 9.31716 10.4415 9.87977 9.87891C10.4424 9.3163 11.2054 9.00023 12.0011 9.00023L12.0001 9.00123ZM17.2501 5.50123C16.9275 5.51414 16.6224 5.65138 16.3987 5.8842C16.175 6.11702 16.0501 6.42736 16.0501 6.75023C16.0501 7.0731 16.175 7.38344 16.3987 7.61626C16.6224 7.84908 16.9275 7.98632 17.2501 7.99923C17.5816 7.99923 17.8996 7.86753 18.134 7.63311C18.3684 7.39869 18.5001 7.08075 18.5001 6.74923C18.5001 6.41771 18.3684 6.09977 18.134 5.86535C17.8996 5.63093 17.5816 5.49923 17.2501 5.49923V5.50123Z" fill="#07C447"/>
</svg>
